<?xml version="1.0" encoding="UTF-8" standalone="no"?>
<svg
   xmlns:dc="http://purl.org/dc/elements/1.1/"
   xmlns:cc="http://creativecommons.org/ns#"
   xmlns:rdf="http://www.w3.org/1999/02/22-rdf-syntax-ns#"
   xmlns:svg="http://www.w3.org/2000/svg"
   xmlns="http://www.w3.org/2000/svg"
   xmlns:sodipodi="http://sodipodi.sourceforge.net/DTD/sodipodi-0.dtd"
   xmlns:inkscape="http://www.inkscape.org/namespaces/inkscape"
   height="150mm"
   width="150mm"
   version="1.1"
   id="svg154"
   sodipodi:docname="out.svg"
   inkscape:version="0.92.3 (2405546, 2018-03-11)">
  <metadata
     id="metadata160">
    <rdf:RDF>
      <cc:Work
         rdf:about="">
        <dc:format>image/svg+xml</dc:format>
        <dc:type
           rdf:resource="http://purl.org/dc/dcmitype/StillImage" />
        <dc:title></dc:title>
      </cc:Work>
    </rdf:RDF>
  </metadata>
  <defs
     id="defs158" />
  <sodipodi:namedview
     pagecolor="#ffffff"
     bordercolor="#666666"
     borderopacity="1"
     objecttolerance="10"
     gridtolerance="10"
     guidetolerance="10"
     inkscape:pageopacity="0"
     inkscape:pageshadow="2"
     inkscape:window-width="1536"
     inkscape:window-height="801"
     id="namedview156"
     showgrid="false"
     units="mm"
     inkscape:zoom="1.1125147"
     inkscape:cx="184.91868"
     inkscape:cy="425.98911"
     inkscape:window-x="-8"
     inkscape:window-y="-8"
     inkscape:window-maximized="1"
     inkscape:current-layer="layer1" />
  <g
     inkscape:groupmode="layer"
     id="layer1"
     inkscape:label="Layer 1">
    <rect
       style="fill:#e6e6e6;fill-opacity:1;stroke:#000000;stroke-width:1.00316036;stroke-miterlimit:4;stroke-dasharray:none;stroke-opacity:1"
       id="rect967"
       width="570.75958"
       height="570.54144"
       x="-1.5329111"
       y="-1.180573" />
  </g>
  <g
     inkscape:groupmode="layer"
     id="layer2"
     inkscape:label="Layer 2">
    <g
       id="g4"
       style="fill-rule:evenodd;stroke-width:0.2647033;stroke-miterlimit:4;stroke-dasharray:none;fill:#008080;fill-opacity:1"
       transform="matrix(3.7778146,0,0,3.7778146,0.83020837,-1.0868132)">
      <path
         d="m 71.1587,65.1921 1.9422,-1.9421 14.2,-9 h 7.3578 v 48 h -7.3578 l -14.2,-9 -1.9422,-1.9421 z"
         style="fill:#008080;stroke:#000000;stroke-width:0.2647033;stroke-miterlimit:4;stroke-dasharray:none;fill-opacity:1"
         id="path2"
         inkscape:connector-curvature="0" />
    </g>
    <g
       id="g8"
       style="fill-rule:evenodd;stroke-width:0.2647033;stroke-miterlimit:4;stroke-dasharray:none;fill:#008080;fill-opacity:1"
       transform="matrix(3.7778146,0,0,3.7778146,0.83020837,-1.0868132)">
      <path
         d="m 94.6587,65.1921 1.9422,-1.9421 14.2001,-9 h 7.358 v 48 h -7.358 l -14.2001,-9 -1.9422,-1.9421 z"
         style="fill:#008080;stroke:#000000;stroke-width:0.2647033;stroke-miterlimit:4;stroke-dasharray:none;fill-opacity:1"
         id="path6"
         inkscape:connector-curvature="0" />
    </g>
    <g
       id="g12"
       style="fill-rule:evenodd;stroke-width:0.2647033;stroke-miterlimit:4;stroke-dasharray:none;fill:#008080;fill-opacity:1"
       transform="matrix(3.7778146,0,0,3.7778146,0.83020837,-1.0868132)">
      <path
         d="m 47.6587,65.1921 1.9422,-1.9421 14.2,-9 h 7.3578 v 48 h -7.3578 l -14.2,-9 -1.9422,-1.9421 z"
         style="fill:#008080;stroke:#000000;stroke-width:0.2647033;stroke-miterlimit:4;stroke-dasharray:none;fill-opacity:1"
         id="path10"
         inkscape:connector-curvature="0" />
    </g>
    <g
       id="g16"
       style="fill-rule:evenodd;stroke-width:0.2647033;stroke-miterlimit:4;stroke-dasharray:none;fill:#008080;fill-opacity:1"
       transform="matrix(3.7778146,0,0,3.7778146,0.83020837,-1.0868132)">
      <path
         d="m 69.8508,125.75 -1.9421,-1.942 -9,-14.2 v -7.358 h 48.0003 v 7.358 l -9.0003,14.2 -1.942,1.942 z"
         style="fill:#008080;stroke:#000000;stroke-width:0.2647033;stroke-miterlimit:4;stroke-dasharray:none;fill-opacity:1"
         id="path14"
         inkscape:connector-curvature="0" />
    </g>
    <g
       id="g20"
       style="fill-rule:evenodd;stroke-width:0.2647033;stroke-miterlimit:4;stroke-dasharray:none;fill:#008080;fill-opacity:1"
       transform="matrix(3.7778146,0,0,3.7778146,0.83020837,-1.0868132)">
      <path
         d="m 69.8508,54.25 -1.9421,-1.9421 -9,-14.2 V 30.75 h 48.0003 v 7.3579 l -9.0003,14.2 -1.942,1.9421 z"
         style="fill:#008080;stroke:#000000;stroke-width:0.2647033;stroke-miterlimit:4;stroke-dasharray:none;fill-opacity:1"
         id="path18"
         inkscape:connector-curvature="0" />
    </g>
    <g
       id="g24"
       style="fill-rule:evenodd;stroke-width:0.2647033;stroke-miterlimit:4;stroke-dasharray:none;fill:#008080;fill-opacity:1"
       transform="matrix(3.7778146,0,0,3.7778146,0.83020837,-1.0868132)">
      <path
         d="m 24.1587,65.1921 1.9422,-1.9421 14.2,-9 h 7.3578 v 48 h -7.3578 l -14.2,-9 -1.9422,-1.9421 z"
         style="fill:#008080;stroke:#000000;stroke-width:0.2647033;stroke-miterlimit:4;stroke-dasharray:none;fill-opacity:1"
         id="path22"
         inkscape:connector-curvature="0" />
    </g>
    <g
       id="g28"
       style="fill-rule:evenodd;stroke-width:0.2647033;stroke-miterlimit:4;stroke-dasharray:none;fill:#008080;fill-opacity:1"
       transform="matrix(3.7778146,0,0,3.7778146,0.83020837,-1.0868132)">
      <path
         d="m 118.159,65.1921 1.942,-1.9421 14.2,-9 h 7.358 v 48 h -7.358 l -14.2,-9 -1.942,-1.9421 z"
         style="fill:#008080;stroke:#000000;stroke-width:0.2647033;stroke-miterlimit:4;stroke-dasharray:none;fill-opacity:1"
         id="path26"
         inkscape:connector-curvature="0" />
    </g>
    <g
       id="g32"
       style="fill-rule:evenodd;stroke-width:0.2647033;stroke-miterlimit:4;stroke-dasharray:none;fill:#008080;fill-opacity:1"
       transform="matrix(3.7778146,0,0,3.7778146,0.83020837,-1.0868132)">
      <path
         d="m 53.5342,30.75 1.9421,1.9421 9,14.2 -10e-5,7.3579 H 16.4763 v -7.3579 l 9,-14.2 1.9421,-1.9421 z"
         style="fill:#008080;stroke:#000000;stroke-width:0.2647033;stroke-miterlimit:4;stroke-dasharray:none;fill-opacity:1"
         id="path30"
         inkscape:connector-curvature="0" />
    </g>
    <g
       id="g36"
       style="fill-rule:evenodd;stroke-width:0.2647033;stroke-miterlimit:4;stroke-dasharray:none;fill:#008080;fill-opacity:1"
       transform="matrix(3.7778146,0,0,3.7778146,0.83020837,-1.0868132)">
      <path
         d="m 53.5342,102.25 1.9421,1.942 9,14.2 -10e-5,7.358 H 16.4763 v -7.358 l 9,-14.2 1.9421,-1.942 z"
         style="fill:#008080;stroke:#000000;stroke-width:0.2647033;stroke-miterlimit:4;stroke-dasharray:none;fill-opacity:1"
         id="path34"
         inkscape:connector-curvature="0" />
    </g>
    <g
       id="g40"
       style="fill-rule:evenodd;stroke-width:0.2647033;stroke-miterlimit:4;stroke-dasharray:none;fill:#008080;fill-opacity:1"
       transform="matrix(3.7778146,0,0,3.7778146,0.83020837,-1.0868132)">
      <path
         d="m 138.399,102.25 1.942,1.942 9,14.2 v 7.358 h -48 v -7.358 l 9,-14.2 1.942,-1.942 z"
         style="fill:#008080;stroke:#000000;stroke-width:0.2647033;stroke-miterlimit:4;stroke-dasharray:none;fill-opacity:1"
         id="path38"
         inkscape:connector-curvature="0" />
    </g>
    <g
       id="g44"
       style="fill-rule:evenodd;stroke-width:0.2647033;stroke-miterlimit:4;stroke-dasharray:none;fill:#008080;fill-opacity:1"
       transform="matrix(3.7778146,0,0,3.7778146,0.83020837,-1.0868132)">
      <path
         d="m 138.399,30.75 1.942,1.9421 9,14.2 V 54.25 h -48 v -7.3579 l 9,-14.2 1.942,-1.9421 z"
         style="fill:#008080;stroke:#000000;stroke-width:0.2647033;stroke-miterlimit:4;stroke-dasharray:none;fill-opacity:1"
         id="path42"
         inkscape:connector-curvature="0" />
    </g>
    <g
       id="g48"
       style="fill-rule:evenodd;stroke-width:0.2647033;stroke-miterlimit:4;stroke-dasharray:none;fill:#008080;fill-opacity:1"
       transform="matrix(3.7778146,0,0,3.7778146,0.83020837,-1.0868132)">
      <path
         d="m 95.9667,7.25 1.942,1.94214 9.0003,14.19996 V 30.75 H 58.9087 V 23.3921 L 67.9088,9.19214 69.8509,7.25 Z"
         style="fill:#008080;stroke:#000000;stroke-width:0.2647033;stroke-miterlimit:4;stroke-dasharray:none;fill-opacity:1"
         id="path46"
         inkscape:connector-curvature="0" />
    </g>
    <g
       id="g52"
       style="fill-rule:evenodd;stroke-width:0.2647033;stroke-miterlimit:4;stroke-dasharray:none;fill:#008080;fill-opacity:1"
       transform="matrix(3.7778146,0,0,3.7778146,0.83020837,-1.0868132)">
      <path
         d="m 95.9667,125.75 1.942,1.942 9.0003,14.2 v 7.358 H 58.9087 v -7.358 l 9.0001,-14.2 1.9421,-1.942 z"
         style="fill:#008080;stroke:#000000;stroke-width:0.2647033;stroke-miterlimit:4;stroke-dasharray:none;fill-opacity:1"
         id="path50"
         inkscape:connector-curvature="0" />
    </g>
    <g
       id="g56"
       style="fill-rule:evenodd;stroke-width:0.2647033;stroke-miterlimit:4;stroke-dasharray:none;fill:#008080;fill-opacity:1"
       transform="matrix(3.7778146,0,0,3.7778146,0.83020837,-1.0868132)">
      <path
         d="m 0.65875,65.1921 1.94214,-1.9421 14.20001,-9 h 7.3578 v 48 h -7.3578 l -14.20001,-9 -1.94214,-1.9421 z"
         style="fill:#008080;stroke:#000000;stroke-width:0.2647033;stroke-miterlimit:4;stroke-dasharray:none;fill-opacity:1"
         id="path54"
         inkscape:connector-curvature="0" />
    </g>
    <g
       id="g60"
       style="fill-rule:evenodd;stroke-width:0.2647033;stroke-miterlimit:4;stroke-dasharray:none;fill:#008080;fill-opacity:1"
       transform="matrix(3.7778146,0,0,3.7778146,0.83020837,-1.0868132)">
      <path
         d="m 112.283,30.75 -1.942,-1.9421 -9,-14.2 V 7.25 h 48 v 7.3579 l -9,14.2 -1.942,1.9421 z"
         style="fill:#008080;stroke:#000000;stroke-width:0.2647033;stroke-miterlimit:4;stroke-dasharray:none;fill-opacity:1"
         id="path58"
         inkscape:connector-curvature="0" />
    </g>
    <g
       id="g64"
       style="fill-rule:evenodd;stroke-width:0.2647033;stroke-miterlimit:4;stroke-dasharray:none;fill:#008080;fill-opacity:1"
       transform="matrix(3.7778146,0,0,3.7778146,0.83020837,-1.0868132)">
      <path
         d="m 119.973,125.75 v 10 h -9 l -0.522,-0.027 -8.386,-1.473 v -7 l 8.386,-1.473 0.522,-0.027 z"
         style="fill:#008080;stroke:#000000;stroke-width:0.2647033;stroke-miterlimit:4;stroke-dasharray:none;fill-opacity:1"
         id="path62"
         inkscape:connector-curvature="0" />
    </g>
    <g
       id="g68"
       style="fill-rule:evenodd;stroke-width:0.2647033;stroke-miterlimit:4;stroke-dasharray:none;fill:#008080;fill-opacity:1"
       transform="matrix(3.7778146,0,0,3.7778146,0.83020837,-1.0868132)">
      <path
         d="m 45.8443,135.75 v -10 h 9 l 0.5226,0.027 8.3855,1.473 v 7 l -8.3855,1.473 -0.5226,0.027 z"
         style="fill:#008080;stroke:#000000;stroke-width:0.2647033;stroke-miterlimit:4;stroke-dasharray:none;fill-opacity:1"
         id="path66"
         inkscape:connector-curvature="0" />
    </g>
    <g
       id="g72"
       style="fill-rule:evenodd;stroke-width:0.2647033;stroke-miterlimit:4;stroke-dasharray:none;fill:#008080;fill-opacity:1"
       transform="matrix(3.7778146,0,0,3.7778146,0.83020837,-1.0868132)">
      <path
         d="m 41.0007,30.75 v -10 h 8.9999 l 0.5226,0.0274 8.3855,1.4726 v 7 l -8.3855,1.4726 -0.5226,0.0274 z"
         style="fill:#008080;stroke:#000000;stroke-width:0.2647033;stroke-miterlimit:4;stroke-dasharray:none;fill-opacity:1"
         id="path70"
         inkscape:connector-curvature="0" />
    </g>
    <g
       id="g76"
       style="fill-rule:evenodd;stroke-width:0.2647033;stroke-miterlimit:4;stroke-dasharray:none;fill:#008080;fill-opacity:1"
       transform="matrix(3.7778146,0,0,3.7778146,0.83020837,-1.0868132)">
      <path
         d="m 43.6259,20.75 v -10 h 9 l 0.5226,0.0274 8.3855,1.4726 v 7 l -8.3855,1.4726 -0.5226,0.0274 z"
         style="fill:#008080;stroke:#000000;stroke-width:0.2647033;stroke-miterlimit:4;stroke-dasharray:none;fill-opacity:1"
         id="path74"
         inkscape:connector-curvature="0" />
    </g>
    <g
       id="g80"
       style="fill-rule:evenodd;stroke-width:0.2647033;stroke-miterlimit:4;stroke-dasharray:none;fill:#008080;fill-opacity:1"
       transform="matrix(3.7778146,0,0,3.7778146,0.83020837,-1.0868132)">
      <path
         d="m 27.9362,135.75 v -10 h 9 l 0.5226,0.027 8.3855,1.473 v 7 l -8.3855,1.473 -0.5226,0.027 z"
         style="fill:#008080;stroke:#000000;stroke-width:0.2647033;stroke-miterlimit:4;stroke-dasharray:none;fill-opacity:1"
         id="path78"
         inkscape:connector-curvature="0" />
    </g>
    <g
       id="g84"
       style="fill-rule:evenodd;stroke-width:0.2647033;stroke-miterlimit:4;stroke-dasharray:none;fill:#008080;fill-opacity:1"
       transform="matrix(3.7778146,0,0,3.7778146,0.83020837,-1.0868132)">
      <path
         d="m 119.973,135.75 v -10 h 9 l 0.523,0.027 8.385,1.473 v 7 l -8.385,1.473 -0.523,0.027 z"
         style="fill:#008080;stroke:#000000;stroke-width:0.2647033;stroke-miterlimit:4;stroke-dasharray:none;fill-opacity:1"
         id="path82"
         inkscape:connector-curvature="0" />
    </g>
    <g
       id="g88"
       style="fill-rule:evenodd;stroke-width:0.2647033;stroke-miterlimit:4;stroke-dasharray:none;fill:#008080;fill-opacity:1"
       transform="matrix(3.7778146,0,0,3.7778146,0.83020837,-1.0868132)">
      <path
         d="m 106.909,145.75 v -10 h 9 l 0.522,0.027 8.386,1.473 v 7 l -8.386,1.473 -0.522,0.027 z"
         style="fill:#008080;stroke:#000000;stroke-width:0.2647033;stroke-miterlimit:4;stroke-dasharray:none;fill-opacity:1"
         id="path86"
         inkscape:connector-curvature="0" />
    </g>
    <g
       id="g92"
       style="fill-rule:evenodd;stroke-width:0.2647033;stroke-miterlimit:4;stroke-dasharray:none;fill:#008080;fill-opacity:1"
       transform="matrix(3.7778146,0,0,3.7778146,0.83020837,-1.0868132)">
      <path
         d="m 41.0007,145.75 v -10 h 8.9999 l 0.5226,0.027 8.3855,1.473 v 7 l -8.3855,1.473 -0.5226,0.027 z"
         style="fill:#008080;stroke:#000000;stroke-width:0.2647033;stroke-miterlimit:4;stroke-dasharray:none;fill-opacity:1"
         id="path90"
         inkscape:connector-curvature="0" />
    </g>
    <g
       id="g96"
       style="fill-rule:evenodd;stroke-width:0.2647033;stroke-miterlimit:4;stroke-dasharray:none;fill:#008080;fill-opacity:1"
       transform="matrix(3.7778146,0,0,3.7778146,0.83020837,-1.0868132)">
      <path
         d="m 23.0925,30.75 v -10 h 9 l 0.5226,0.0274 8.3856,1.4726 v 7 l -8.3856,1.4726 -0.5226,0.0274 z"
         style="fill:#008080;stroke:#000000;stroke-width:0.2647033;stroke-miterlimit:4;stroke-dasharray:none;fill-opacity:1"
         id="path94"
         inkscape:connector-curvature="0" />
    </g>
    <g
       id="g100"
       style="fill-rule:evenodd;stroke-width:0.2647033;stroke-miterlimit:4;stroke-dasharray:none;fill:#008080;fill-opacity:1"
       transform="matrix(3.7778146,0,0,3.7778146,0.83020837,-1.0868132)">
      <path
         d="m 3.81464,111.614 v -10 h 8.99996 l 0.5226,0.028 8.3855,1.472 v 7 l -8.3855,1.473 -0.5226,0.027 z"
         style="fill:#008080;stroke:#000000;stroke-width:0.2647033;stroke-miterlimit:4;stroke-dasharray:none;fill-opacity:1"
         id="path98"
         inkscape:connector-curvature="0" />
    </g>
    <g
       id="g104"
       style="fill-rule:evenodd;stroke-width:0.2647033;stroke-miterlimit:4;stroke-dasharray:none;fill:#008080;fill-opacity:1"
       transform="matrix(3.7778146,0,0,3.7778146,0.83020837,-1.0868132)">
      <path
         d="m 66.4644,1.47094 v 9.99996 h -9 L 56.9418,11.4435 48.5563,9.97094 v -7 l 8.3855,-1.47261 0.5226,-0.02739 z"
         style="fill:#008080;stroke:#000000;stroke-width:0.2647033;stroke-miterlimit:4;stroke-dasharray:none;fill-opacity:1"
         id="path102"
         inkscape:connector-curvature="0" />
    </g>
    <g
       id="g108"
       style="fill-rule:evenodd;stroke-width:0.2647033;stroke-miterlimit:4;stroke-dasharray:none;fill:#008080;fill-opacity:1"
       transform="matrix(3.7778146,0,0,3.7778146,0.83020837,-1.0868132)">
      <path
         d="m 6.4976,37.4848 h 10 v 9 l -0.0274,0.5226 -1.4726,8.3855 h -7 L 6.52499,47.0074 6.4976,46.4848 Z"
         style="fill:#008080;stroke:#000000;stroke-width:0.2647033;stroke-miterlimit:4;stroke-dasharray:none;fill-opacity:1"
         id="path106"
         inkscape:connector-curvature="0" />
    </g>
    <g
       id="g112"
       style="fill-rule:evenodd;stroke-width:0.2647033;stroke-miterlimit:4;stroke-dasharray:none;fill:#008080;fill-opacity:1"
       transform="matrix(3.7778146,0,0,3.7778146,0.83020837,-1.0868132)">
      <path
         d="m 43.6259,10.75 v 10 h -9 L 34.1033,20.7226 25.7178,19.25 v -7 L 34.1033,10.7774 34.626,10.75 Z"
         style="fill:#008080;stroke:#000000;stroke-width:0.2647033;stroke-miterlimit:4;stroke-dasharray:none;fill-opacity:1"
         id="path110"
         inkscape:connector-curvature="0" />
    </g>
    <g
       id="g116"
       style="fill-rule:evenodd;stroke-width:0.2647033;stroke-miterlimit:4;stroke-dasharray:none;fill:#008080;fill-opacity:1"
       transform="matrix(3.7778146,0,0,3.7778146,0.83020837,-1.0868132)">
      <path
         d="m 142.725,135.044 v 10 h -9 l -0.523,-0.027 -8.385,-1.473 v -7 l 8.385,-1.472 0.523,-0.028 z"
         style="fill:#008080;stroke:#000000;stroke-width:0.2647033;stroke-miterlimit:4;stroke-dasharray:none;fill-opacity:1"
         id="path114"
         inkscape:connector-curvature="0" />
    </g>
    <g
       id="g120"
       style="fill-rule:evenodd;stroke-width:0.2647033;stroke-miterlimit:4;stroke-dasharray:none;fill:#008080;fill-opacity:1"
       transform="matrix(3.7778146,0,0,3.7778146,0.83020837,-1.0868132)">
      <path
         d="m 23.0925,145.75 v -10 h 9 l 0.5226,0.027 8.3856,1.473 v 7 l -8.3856,1.473 -0.5226,0.027 z"
         style="fill:#008080;stroke:#000000;stroke-width:0.2647033;stroke-miterlimit:4;stroke-dasharray:none;fill-opacity:1"
         id="path118"
         inkscape:connector-curvature="0" />
    </g>
    <g
       id="g124"
       style="fill-rule:evenodd;stroke-width:0.2647033;stroke-miterlimit:4;stroke-dasharray:none;fill:#008080;fill-opacity:1"
       transform="matrix(3.7778146,0,0,3.7778146,0.83020837,-1.0868132)">
      <path
         d="m 13.0925,19.5767 h 10 v 9 l -0.0273,0.5226 -1.4727,8.3855 h -7 l -1.4726,-8.3855 -0.0274,-0.5226 z"
         style="fill:#008080;stroke:#000000;stroke-width:0.2647033;stroke-miterlimit:4;stroke-dasharray:none;fill-opacity:1"
         id="path122"
         inkscape:connector-curvature="0" />
    </g>
    <g
       id="g128"
       style="fill-rule:evenodd;stroke-width:0.2647033;stroke-miterlimit:4;stroke-dasharray:none;fill:#008080;fill-opacity:1"
       transform="matrix(3.7778146,0,0,3.7778146,0.83020837,-1.0868132)">
      <path
         d="m 10.0281,135.75 v -10 h 9 l 0.5226,0.027 8.3855,1.473 v 7 l -8.3855,1.473 -0.5226,0.027 z"
         style="fill:#008080;stroke:#000000;stroke-width:0.2647033;stroke-miterlimit:4;stroke-dasharray:none;fill-opacity:1"
         id="path126"
         inkscape:connector-curvature="0" />
    </g>
    <g
       id="g132"
       style="fill-rule:evenodd;stroke-width:0.2647033;stroke-miterlimit:4;stroke-dasharray:none;fill:#008080;fill-opacity:1"
       transform="matrix(3.7778146,0,0,3.7778146,0.83020837,-1.0868132)">
      <path
         d="M 30.6482,10.75 V 0.750001 h 9 L 40.1708,0.777392 48.5563,2.25 v 7 l -8.3855,1.4726 -0.5226,0.0274 z"
         style="fill:#008080;stroke:#000000;stroke-width:0.2647033;stroke-miterlimit:4;stroke-dasharray:none;fill-opacity:1"
         id="path130"
         inkscape:connector-curvature="0" />
    </g>
    <g
       id="g136"
       style="fill-rule:evenodd;stroke-width:0.2647033;stroke-miterlimit:4;stroke-dasharray:none;fill:#008080;fill-opacity:1"
       transform="matrix(3.7778146,0,0,3.7778146,0.83020837,-1.0868132)">
      <path
         d="M 0.865566,111.614 H 10.8656 v 9 l -0.0274,0.523 -1.47263,8.385 h -7 l -1.472613,-8.385 -0.027391,-0.523 z"
         style="fill:#008080;stroke:#000000;stroke-width:0.2647033;stroke-miterlimit:4;stroke-dasharray:none;fill-opacity:1"
         id="path134"
         inkscape:connector-curvature="0" />
    </g>
    <g
       id="g140"
       style="fill-rule:evenodd;stroke-width:0.2647033;stroke-miterlimit:4;stroke-dasharray:none;fill:#008080;fill-opacity:1"
       transform="matrix(3.7778146,0,0,3.7778146,0.83020837,-1.0868132)">
      <path
         d="m 3.09255,19.5767 h 9.99995 v 9 l -0.0273,0.5226 -1.4727,8.3855 H 4.59255 L 3.11994,29.0993 3.09255,28.5767 Z"
         style="fill:#008080;stroke:#000000;stroke-width:0.2647033;stroke-miterlimit:4;stroke-dasharray:none;fill-opacity:1"
         id="path138"
         inkscape:connector-curvature="0" />
    </g>
    <g
       id="g144"
       style="fill-rule:evenodd;stroke-width:0.2647033;stroke-miterlimit:4;stroke-dasharray:none;fill:#008080;fill-opacity:1"
       transform="matrix(3.7778146,0,0,3.7778146,0.83020837,-1.0868132)">
      <path
         d="m 15.9312,1.66863 h 10 v 8.99997 l -0.0274,0.5226 -1.4726,8.3855 h -7 l -1.4726,-8.3855 -0.0274,-0.5226 z"
         style="fill:#008080;stroke:#000000;stroke-width:0.2647033;stroke-miterlimit:4;stroke-dasharray:none;fill-opacity:1"
         id="path142"
         inkscape:connector-curvature="0" />
    </g>
    <g
       id="g148"
       style="fill-rule:evenodd;stroke-width:0.2647033;stroke-miterlimit:4;stroke-dasharray:none;fill:#008080;fill-opacity:1"
       transform="matrix(3.7778146,0,0,3.7778146,0.83020837,-1.0868132)">
      <path
         d="m 5.18445,145.75 v -10 h 8.99995 l 0.5226,0.027 8.3855,1.473 v 7 l -8.3855,1.473 -0.5226,0.027 z"
         style="fill:#008080;stroke:#000000;stroke-width:0.2647033;stroke-miterlimit:4;stroke-dasharray:none;fill-opacity:1"
         id="path146"
         inkscape:connector-curvature="0" />
    </g>
    <g
       id="g152"
       style="fill-rule:evenodd;stroke-width:0.2647033;stroke-miterlimit:4;stroke-dasharray:none;fill:#008080;fill-opacity:1"
       transform="matrix(3.7778146,0,0,3.7778146,0.83020837,-1.0868132)">
      <path
         d="M 5.93117,1.66863 H 15.9312 v 8.99997 l -0.0274,0.5226 -1.4726,8.3855 H 7.43117 l -1.4726,-8.3855 -0.0274,-0.5226 z"
         style="fill:#008080;stroke:#000000;stroke-width:0.2647033;stroke-miterlimit:4;stroke-dasharray:none;fill-opacity:1"
         id="path150"
         inkscape:connector-curvature="0" />
    </g>
  </g>
</svg>
